<svg class="main-svg" xmlns="http://www.w3.org/2000/svg" xmlns:xlink="http://www.w3.org/1999/xlink" width="720" height="460" style="" viewBox="0 0 720 460"><rect x="0" y="0" width="720" height="460" style="fill: rgb(255, 255, 255); fill-opacity: 1;"/><defs id="defs-da5118"><g class="clips"><clipPath id="clipda5118xyplot" class="plotclip"><rect width="640" height="355"/></clipPath><clipPath class="axesclip" id="clipda5118x"><rect x="60" y="0" width="640" height="460"/></clipPath><clipPath class="axesclip" id="clipda5118y"><rect x="0" y="50" width="720" height="355"/></clipPath><clipPath class="axesclip" id="clipda5118xy"><rect x="60" y="50" width="640" height="355"/></clipPath></g><g class="gradients"/><g class="patterns"/></defs><g class="bglayer"/><g class="layer-below"><g class="imagelayer"/><g class="shapelayer"/></g><g class="cartesianlayer"><g class="subplot xy"><g class="layer-subplot"><g class="shapelayer"/><g class="imagelayer"/></g><g class="minor-gridlayer"><g class="x"/><g class="y"/></g><g class="gridlayer"><g class="x"/><g class="y"/></g><g class="zerolinelayer"/><g class="layer-between"><g class="shapelayer"/><g class="imagelayer"/></g><path class="xlines-below"/><path class="ylines-below"/><g class="overlines-below"/><g class="xaxislayer-below"/><g class="yaxislayer-below"/><g class="overaxes-below"/><g class="overplot"><g class="xy" transform="translate(60,50)" clip-path="url(#clipda5118xyplot)"><g class="scatterlayer mlayer"><g class="trace scatter trace035964" style="stroke-miterlimit: 2; opacity: 1;"><g class="fills"><g><path class="js-fill" d="M0,185.57L6.46,188.13L12.93,186.95L19.39,155.67L25.86,130.4L32.32,109.83L38.79,94.78L45.25,84.86L51.72,78.2L58.18,70.35L64.65,66.16L90.51,51.11L96.97,49.68L109.9,41.93L116.36,39.36L122.83,37.54L129.29,34.23L135.76,32.06L142.22,30.73L148.69,30.18L155.15,28.46L161.62,26.29L168.08,26.88L181.01,23.03L187.47,23.82L193.94,23.87L200.4,22.24L206.87,20.37L213.33,21.99L219.8,22.44L226.26,20.96L232.73,22.54L239.19,22.68L258.59,19.72L265.05,22.24L271.52,20.41L277.98,20.71L284.44,19.67L290.91,21.7L323.23,20.27L329.7,21.89L342.63,21.8L349.09,20.81L355.56,21.45L362.02,20.81L368.48,20.41L374.95,21.25L381.41,19.23L387.88,19.97L394.34,20.27L400.81,21.65L407.27,20.61L413.74,20.51L420.2,20.37L426.67,18.05L433.13,20.17L439.6,18.14L446.06,20.32L452.53,19.77L465.45,19.82L471.92,19.08L478.38,21.15L484.85,20.12L491.31,20.41L497.78,18.54L504.24,18.79L510.71,20.46L517.17,20.27L523.64,19.13L530.1,20.41L536.57,18.59L543.03,20.51L549.49,19.08L562.42,18.24L568.89,19.48L581.82,17.75L588.28,20.02L601.21,18.29L607.68,19.38L614.14,19.48L620.61,18.79L633.54,19.53L640,20.86L640,26.48L633.54,26.83L620.61,26.39L614.14,28.01L607.68,26.14L601.21,27.37L594.75,28.31L588.28,27.22L581.82,26.53L575.35,27.82L568.89,28.31L562.42,25.5L555.96,27.72L549.49,25.84L536.57,27.42L530.1,26.68L523.64,27.32L517.17,27.03L504.24,27.67L497.78,26.78L478.38,27.47L471.92,25.74L465.45,27.17L458.99,25.79L446.06,27.22L439.6,26.88L433.13,27.87L426.67,26.88L413.74,27.87L407.27,25.99L400.81,27.32L394.34,27.47L387.88,26.93L381.41,28.06L374.95,26.58L368.48,28.65L362.02,27.17L355.56,28.95L342.63,27.77L336.16,26.39L329.7,27.32L323.23,27.17L316.77,28.56L310.3,27.82L297.37,27.67L290.91,28.95L277.98,27.72L271.52,28.36L258.59,29.64L252.12,28.7L245.66,29.74L239.19,28.16L232.73,29.44L226.26,29.3L219.8,29.59L213.33,29.05L206.87,31.47L200.4,31.02L193.94,32.31L187.47,32.11L161.62,39.61L155.15,41.09L148.69,43.06L142.22,46.71L135.76,48.74L129.29,52.93L122.83,55L116.36,59.4L103.43,64.82L96.97,68.52L90.51,71.58L84.04,72.57L77.58,75.73L71.11,81.06L64.65,81.95L58.18,90.29L45.25,100.8L38.79,111.85L32.32,127.54L25.86,150.34L19.39,170.96L12.93,195.78L6.46,197.16L0,205.11Z" style="fill: rgb(31, 119, 180); fill-opacity: 0.18; stroke-width: 0;"/></g></g><g class="errorbars"/><g class="lines"><path class="js-line" d="M0,185.57L6.46,188.13L12.93,186.95L19.39,155.67L25.86,130.4L32.32,109.83L38.79,94.78L45.25,84.86L51.72,78.2L58.18,70.35L64.65,66.16L90.51,51.11L96.97,49.68L109.9,41.93L116.36,39.36L122.83,37.54L129.29,34.23L135.76,32.06L142.22,30.73L148.69,30.18L155.15,28.46L161.62,26.29L168.08,26.88L181.01,23.03L187.47,23.82L193.94,23.87L200.4,22.24L206.87,20.37L213.33,21.99L219.8,22.44L226.26,20.96L232.73,22.54L239.19,22.68L258.59,19.72L265.05,22.24L271.52,20.41L277.98,20.71L284.44,19.67L290.91,21.7L323.23,20.27L329.7,21.89L342.63,21.8L349.09,20.81L355.56,21.45L362.02,20.81L368.48,20.41L374.95,21.25L381.41,19.23L387.88,19.97L394.34,20.27L400.81,21.65L407.27,20.61L413.74,20.51L420.2,20.37L426.67,18.05L433.13,20.17L439.6,18.14L446.06,20.32L452.53,19.77L465.45,19.82L471.92,19.08L478.38,21.15L484.85,20.12L491.31,20.41L497.78,18.54L504.24,18.79L510.71,20.46L517.17,20.27L523.64,19.13L530.1,20.41L536.57,18.59L543.03,20.51L549.49,19.08L562.42,18.24L568.89,19.48L581.82,17.75L588.28,20.02L601.21,18.29L607.68,19.38L614.14,19.48L620.61,18.79L633.54,19.53L640,20.86L640,26.48L633.54,26.83L620.61,26.39L614.14,28.01L607.68,26.14L601.21,27.37L594.75,28.31L588.28,27.22L581.82,26.53L575.35,27.82L568.89,28.31L562.42,25.5L555.96,27.72L549.49,25.84L536.57,27.42L530.1,26.68L523.64,27.32L517.17,27.03L504.24,27.67L497.78,26.78L478.38,27.47L471.92,25.74L465.45,27.17L458.99,25.79L446.06,27.22L439.6,26.88L433.13,27.87L426.67,26.88L413.74,27.87L407.27,25.99L400.81,27.32L394.34,27.47L387.88,26.93L381.41,28.06L374.95,26.58L368.48,28.65L362.02,27.17L355.56,28.95L342.63,27.77L336.16,26.39L329.7,27.32L323.23,27.17L316.77,28.56L310.3,27.82L297.37,27.67L290.91,28.95L277.98,27.72L271.52,28.36L258.59,29.64L252.12,28.7L245.66,29.74L239.19,28.16L232.73,29.44L226.26,29.3L219.8,29.59L213.33,29.05L206.87,31.47L200.4,31.02L193.94,32.31L187.47,32.11L161.62,39.61L155.15,41.09L148.69,43.06L142.22,46.71L135.76,48.74L129.29,52.93L122.83,55L116.36,59.4L103.43,64.82L96.97,68.52L90.51,71.58L84.04,72.57L77.58,75.73L71.11,81.06L64.65,81.95L58.18,90.29L45.25,100.8L38.79,111.85L32.32,127.54L25.86,150.34L19.39,170.96L12.93,195.78L6.46,197.16L0,205.11" style="vector-effect: none; fill: none; stroke: rgb(0, 0, 0); stroke-opacity: 0; stroke-width: 2px; opacity: 1;"/></g><g class="points"/><g class="text"/></g><g class="trace scatter trace7d71b1" style="stroke-miterlimit: 2; opacity: 1;"><g class="fills"/><g class="errorbars"/><g class="lines"><path class="js-line" d="M0,197.14L6.46,193.86L12.93,192.13L19.39,163.72L25.86,140.72L32.32,118.65L38.79,103.13L45.25,92.75L51.72,84.76L58.18,77.58L64.65,71.91L71.11,69.26L77.58,64.54L84.04,60.64L90.51,57.81L109.9,49.08L116.36,46.01L129.29,40.56L135.76,37.66L142.22,36.84L148.69,34.58L161.62,30.94L168.08,30.39L181.01,27.3L187.47,26.49L193.94,26.47L200.4,25.65L206.87,25.11L213.33,25.42L239.19,24.63L245.66,25.39L252.12,24.66L258.59,24.8L271.52,24.16L277.98,24.32L303.84,24.25L310.3,23.28L323.23,23.49L329.7,23.44L349.09,23.25L355.56,24.18L362.02,23.15L368.48,23.9L374.95,23.38L381.41,23.83L387.88,22.8L394.34,23.04L400.81,23.36L407.27,22.78L433.13,22.85L439.6,22.62L465.45,22.36L471.92,22.24L478.38,23.43L484.85,22.55L491.31,22.67L497.78,21.67L510.71,23.38L517.17,22.72L523.64,22.21L530.1,22.6L549.49,22.78L555.96,22.09L562.42,21.98L568.89,22.62L575.35,22.7L581.82,21.97L588.28,23.02L594.75,22.83L607.68,22.56L614.14,23.1L620.61,22.3L627.07,22.86L633.54,22.55L640,23.08" style="vector-effect: none; fill: none; stroke: rgb(31, 119, 180); stroke-opacity: 1; stroke-width: 2px; opacity: 1;"/></g><g class="points"/><g class="text"/></g><g class="trace scatter trace72f9f9" style="stroke-miterlimit: 2; opacity: 1;"><g class="fills"><g><path class="js-fill" d="M0,233.88L6.46,232.59L12.93,228.45L19.39,186.9L25.86,164.1L32.32,139.14L38.79,119.94L51.72,102.23L58.18,96.9L64.65,91.42L71.11,87.28L90.51,76.81L96.97,74.05L109.9,66.25L116.36,64.77L122.83,61.81L129.29,59.94L135.76,58.41L142.22,55.35L148.69,55.2L155.15,52.49L168.08,49.63L174.55,49.03L181.01,47.36L187.47,47.41L213.33,44.64L219.8,45.88L232.73,43.61L239.19,44.4L245.66,45.53L252.12,45.09L271.52,45.43L277.98,44.44L290.91,43.21L297.37,44.74L323.23,42.82L329.7,44.44L336.16,43.06L342.63,44.99L349.09,43.51L355.56,44.59L362.02,43.61L368.48,45.38L374.95,43.51L381.41,43.11L387.88,44.54L394.34,43.66L400.81,42.32L407.27,43.56L413.74,43.26L420.2,44.49L426.67,43.41L433.13,43.66L439.6,45.14L446.06,43.26L452.53,42.92L458.99,43.8L465.45,43.85L471.92,42.67L478.38,43.66L484.85,43.16L497.78,42.62L504.24,44.05L510.71,42.67L517.17,43.21L523.64,44.35L530.1,42.62L536.57,44.49L543.03,42.57L549.49,43.36L555.96,42.47L575.35,44.59L581.82,43.85L588.28,43.31L594.75,43.95L601.21,43.06L607.68,43.31L614.14,43.95L620.61,43.66L633.54,42.37L640,43.95L640,77.9L633.54,78L627.07,79.77L620.61,78.39L607.68,78.2L601.21,77.26L588.28,76.57L581.82,77.6L575.35,78.64L568.89,76.76L555.96,79.28L549.49,79.53L543.03,77.6L536.57,78.69L523.64,78.25L517.17,79.48L510.71,78.99L504.24,77.7L497.78,80.37L491.31,77.36L478.38,79.08L471.92,78.94L465.45,77.8L458.99,79.77L452.53,77.95L446.06,79.28L439.6,78.39L433.13,79.33L426.67,78.74L420.2,79.28L413.74,79.77L407.27,78.44L400.81,79.68L394.34,79.38L387.88,79.18L381.41,80.56L374.95,78.84L368.48,79.03L362.02,80.32L355.56,79.18L342.63,79.03L336.16,77.6L323.23,80.07L316.77,78.44L310.3,80.47L303.84,80.37L290.91,80.66L284.44,82.24L277.98,81.01L271.52,82.34L265.05,79.68L258.59,80.81L252.12,81.85L245.66,81.45L239.19,82.49L232.73,81.8L226.26,83.72L219.8,83.03L200.4,83.67L193.94,84.51L181.01,86.09L174.55,86.98L168.08,90.09L161.62,89.2L155.15,90.88L148.69,91.77L142.22,93L135.76,96.16L129.29,98.82L122.83,99.51L116.36,99.61L109.9,103.81L103.43,104.84L96.97,107.9L77.58,117.28L71.11,121.08L64.65,124.48L58.18,130.3L51.72,134.99L45.25,143.67L38.79,153.4L32.32,166.52L25.86,181.82L19.39,200.32L12.93,249.47L6.46,252.38L0,253.32Z" style="fill: rgb(214, 39, 40); fill-opacity: 0.18; stroke-width: 0;"/></g></g><g class="errorbars"/><g class="lines"><path class="js-line" d="M0,233.88L6.46,232.59L12.93,228.45L19.39,186.9L25.86,164.1L32.32,139.14L38.79,119.94L51.72,102.23L58.18,96.9L64.65,91.42L71.11,87.28L90.51,76.81L96.97,74.05L109.9,66.25L116.36,64.77L122.83,61.81L129.29,59.94L135.76,58.41L142.22,55.35L148.69,55.2L155.15,52.49L168.08,49.63L174.55,49.03L181.01,47.36L187.47,47.41L213.33,44.64L219.8,45.88L232.73,43.61L239.19,44.4L245.66,45.53L252.12,45.09L271.52,45.43L277.98,44.44L290.91,43.21L297.37,44.74L323.23,42.82L329.7,44.44L336.16,43.06L342.63,44.99L349.09,43.51L355.56,44.59L362.02,43.61L368.48,45.38L374.95,43.51L381.41,43.11L387.88,44.54L394.34,43.66L400.81,42.32L407.27,43.56L413.74,43.26L420.2,44.49L426.67,43.41L433.13,43.66L439.6,45.14L446.06,43.26L452.53,42.92L458.99,43.8L465.45,43.85L471.92,42.67L478.38,43.66L484.85,43.16L497.78,42.62L504.24,44.05L510.71,42.67L517.17,43.21L523.64,44.35L530.1,42.62L536.57,44.49L543.03,42.57L549.49,43.36L555.96,42.47L575.35,44.59L581.82,43.85L588.28,43.31L594.75,43.95L601.21,43.06L607.68,43.31L614.14,43.95L620.61,43.66L633.54,42.37L640,43.95L640,77.9L633.54,78L627.07,79.77L620.61,78.39L607.68,78.2L601.21,77.26L588.28,76.57L581.82,77.6L575.35,78.64L568.89,76.76L555.96,79.28L549.49,79.53L543.03,77.6L536.57,78.69L523.64,78.25L517.17,79.48L510.71,78.99L504.24,77.7L497.78,80.37L491.31,77.36L478.38,79.08L471.92,78.94L465.45,77.8L458.99,79.77L452.53,77.95L446.06,79.28L439.6,78.39L433.13,79.33L426.67,78.74L420.2,79.28L413.74,79.77L407.27,78.44L400.81,79.68L394.34,79.38L387.88,79.18L381.41,80.56L374.95,78.84L368.48,79.03L362.02,80.32L355.56,79.18L342.63,79.03L336.16,77.6L323.23,80.07L316.77,78.44L310.3,80.47L303.84,80.37L290.91,80.66L284.44,82.24L277.98,81.01L271.52,82.34L265.05,79.68L258.59,80.81L252.12,81.85L245.66,81.45L239.19,82.49L232.73,81.8L226.26,83.72L219.8,83.03L200.4,83.67L193.94,84.51L181.01,86.09L174.55,86.98L168.08,90.09L161.62,89.2L155.15,90.88L148.69,91.77L142.22,93L135.76,96.16L129.29,98.82L122.83,99.51L116.36,99.61L109.9,103.81L103.43,104.84L96.97,107.9L77.58,117.28L71.11,121.08L64.65,124.48L58.18,130.3L51.72,134.99L45.25,143.67L38.79,153.4L32.32,166.52L25.86,181.82L19.39,200.32L12.93,249.47L6.46,252.38L0,253.32" style="vector-effect: none; fill: none; stroke: rgb(0, 0, 0); stroke-opacity: 0; stroke-width: 2px; opacity: 1;"/></g><g class="points"/><g class="text"/></g><g class="trace scatter trace7da39b" style="stroke-miterlimit: 2; opacity: 1;"><g class="fills"/><g class="errorbars"/><g class="lines"><path class="js-line" d="M0,244.41L12.93,236.68L19.39,192.18L32.32,152.04L38.79,135.91L45.25,124.71L51.72,115.33L64.65,102.91L71.11,98.33L84.04,90.25L90.51,86.16L103.43,78.78L109.9,76.36L116.36,73.32L122.83,71.5L135.76,67.74L142.22,65.13L148.69,63.96L155.15,61.8L174.55,58.07L181.01,57.53L206.87,54.98L213.33,55.1L226.26,55.12L232.73,53.92L258.59,53.94L265.05,53.55L271.52,54.38L277.98,53.54L284.44,54.21L290.91,53.86L303.84,53.01L310.3,53.57L316.77,52.8L323.23,53.65L336.16,52.15L342.63,53.31L349.09,52.88L355.56,53.22L381.41,52.57L387.88,53.12L446.06,52.35L452.53,51.98L465.45,52.17L471.92,52.54L491.31,51.66L497.78,52.78L523.64,52.22L530.1,52.53L536.57,52.71L543.03,51.35L549.49,52.63L555.96,51.79L562.42,52.63L568.89,52.1L575.35,52.96L581.82,52.31L588.28,51.7L594.75,52.03L601.21,51.59L607.68,52.48L614.14,52.73L620.61,52.04L627.07,52.42L633.54,51.81L640,52.2" style="vector-effect: none; fill: none; stroke: rgb(214, 39, 40); stroke-opacity: 1; stroke-width: 2px; opacity: 1;"/></g><g class="points"/><g class="text"/></g><g class="trace scatter trace287964" style="stroke-miterlimit: 2; opacity: 1;"><g class="fills"><g><path class="js-fill" d="M0,334.59L6.46,329.65L12.93,327.48L19.39,297.97L25.86,286.13L32.32,275.72L38.79,270.39L45.25,267.03L51.72,261.85L58.18,260.37L64.65,253.96L71.11,251.69L77.58,247.05L84.04,246.75L90.51,243.2L96.97,240.59L103.43,239.8L109.9,238.96L116.36,237.33L122.83,235.26L129.29,230.77L142.22,227.95L148.69,227.86L155.15,226.52L161.62,226.08L168.08,224.01L174.55,223.61L187.47,219.96L193.94,219.81L200.4,217.89L206.87,217.34L213.33,217.3L219.8,216.31L226.26,216.31L232.73,217.99L252.12,214.29L258.59,215.37L265.05,213.45L271.52,213.99L277.98,215.08L284.44,214.43L290.91,213.5L297.37,213.35L316.77,213.25L323.23,214.83L329.7,212.41L336.16,211.42L342.63,212.16L349.09,212.07L368.48,211.62L374.95,212.31L387.88,212.51L394.34,210.44L400.81,211.33L407.27,210.04L413.74,211.62L420.2,210.73L426.67,211.08L433.13,209.01L439.6,211.62L446.06,210.39L458.99,208.81L465.45,210.19L471.92,208.81L478.38,210.88L484.85,209.2L491.31,208.91L504.24,208.41L510.71,209.45L523.64,210.24L530.1,209.2L536.57,208.76L543.03,209.55L549.49,207.67L555.96,209.8L562.42,209.75L568.89,207.33L575.35,209.65L581.82,206.93L588.28,208.51L594.75,208.61L601.21,209.01L607.68,207.62L614.14,207.03L620.61,208.71L627.07,209.15L633.54,208.71L640,208.56L640,231.56L633.54,231.36L627.07,230.17L620.61,231.65L614.14,231.56L594.75,231.06L588.28,232.79L581.82,230.12L575.35,232.2L568.89,230.72L562.42,231.8L549.49,232L543.03,230.72L536.57,230.72L530.1,232L517.17,231.21L510.71,232.79L504.24,231.21L497.78,232.39L491.31,233.04L484.85,232.69L478.38,232.74L471.92,230.47L465.45,232.79L458.99,232.25L452.53,231.21L446.06,232.69L439.6,230.67L433.13,231.11L426.67,233.13L420.2,232.99L413.74,231.56L407.27,230.91L400.81,233.97L394.34,232.05L387.88,232.89L381.41,232.59L374.95,233.28L368.48,232.49L362.02,232.74L355.56,234.96L349.09,232.89L342.63,233.38L323.23,233.88L316.77,233.48L290.91,235.36L284.44,233.92L277.98,235.21L271.52,234.91L258.59,234.27L252.12,234.22L239.19,235.9L232.73,236.59L226.26,235.45L219.8,237.33L213.33,235.06L206.87,235.7L193.94,237.38L187.47,237.67L174.55,239.06L168.08,238.71L148.69,243L142.22,244.53L135.76,244.88L129.29,246.51L116.36,249.52L109.9,253.51L103.43,253.37L96.97,254.55L90.51,257.51L84.04,258.69L71.11,264.17L64.65,265.26L51.72,270.29L45.25,274.58L38.79,280.06L32.32,287.26L25.86,296.94L19.39,310.26L12.93,330.79L6.46,332.66L0,337.25Z" style="fill: rgb(44, 160, 44); fill-opacity: 0.18; stroke-width: 0;"/></g></g><g class="errorbars"/><g class="lines"><path class="js-line" d="M0,334.59L6.46,329.65L12.93,327.48L19.39,297.97L25.86,286.13L32.32,275.72L38.79,270.39L45.25,267.03L51.72,261.85L58.18,260.37L64.65,253.96L71.11,251.69L77.58,247.05L84.04,246.75L90.51,243.2L96.97,240.59L103.43,239.8L109.9,238.96L116.36,237.33L122.83,235.26L129.29,230.77L142.22,227.95L148.69,227.86L155.15,226.52L161.62,226.08L168.08,224.01L174.55,223.61L187.47,219.96L193.94,219.81L200.4,217.89L206.87,217.34L213.33,217.3L219.8,216.31L226.26,216.31L232.73,217.99L252.12,214.29L258.59,215.37L265.05,213.45L271.52,213.99L277.98,215.08L284.44,214.43L290.91,213.5L297.37,213.35L316.77,213.25L323.23,214.83L329.7,212.41L336.16,211.42L342.63,212.16L349.09,212.07L368.48,211.62L374.95,212.31L387.88,212.51L394.34,210.44L400.81,211.33L407.27,210.04L413.74,211.62L420.2,210.73L426.67,211.08L433.13,209.01L439.6,211.62L446.06,210.39L458.99,208.81L465.45,210.19L471.92,208.81L478.38,210.88L484.85,209.2L491.31,208.91L504.24,208.41L510.71,209.45L523.64,210.24L530.1,209.2L536.57,208.76L543.03,209.55L549.49,207.67L555.96,209.8L562.42,209.75L568.89,207.33L575.35,209.65L581.82,206.93L588.28,208.51L594.75,208.61L601.21,209.01L607.68,207.62L614.14,207.03L620.61,208.71L627.07,209.15L633.54,208.71L640,208.56L640,231.56L633.54,231.36L627.07,230.17L620.61,231.65L614.14,231.56L594.75,231.06L588.28,232.79L581.82,230.12L575.35,232.2L568.89,230.72L562.42,231.8L549.49,232L543.03,230.72L536.57,230.72L530.1,232L517.17,231.21L510.71,232.79L504.24,231.21L497.78,232.39L491.31,233.04L484.85,232.69L478.38,232.74L471.92,230.47L465.45,232.79L458.99,232.25L452.53,231.21L446.06,232.69L439.6,230.67L433.13,231.11L426.67,233.13L420.2,232.99L413.74,231.56L407.27,230.91L400.81,233.97L394.34,232.05L387.88,232.89L381.41,232.59L374.95,233.28L368.48,232.49L362.02,232.74L355.56,234.96L349.09,232.89L342.63,233.38L323.23,233.88L316.77,233.48L290.91,235.36L284.44,233.92L277.98,235.21L271.52,234.91L258.59,234.27L252.12,234.22L239.19,235.9L232.73,236.59L226.26,235.45L219.8,237.33L213.33,235.06L206.87,235.7L193.94,237.38L187.47,237.67L174.55,239.06L168.08,238.71L148.69,243L142.22,244.53L135.76,244.88L129.29,246.51L116.36,249.52L109.9,253.51L103.43,253.37L96.97,254.55L90.51,257.51L84.04,258.69L71.11,264.17L64.65,265.26L51.72,270.29L45.25,274.58L38.79,280.06L32.32,287.26L25.86,296.94L19.39,310.26L12.93,330.79L6.46,332.66L0,337.25" style="vector-effect: none; fill: none; stroke: rgb(0, 0, 0); stroke-opacity: 0; stroke-width: 2px; opacity: 1;"/></g><g class="points"/><g class="text"/></g><g class="trace scatter tracefde010" style="stroke-miterlimit: 2; opacity: 1;"><g class="fills"/><g class="errorbars"/><g class="lines"><path class="js-line" d="M0,335.76L6.46,330.77L12.93,328.74L19.39,302.81L25.86,290.29L38.79,275.04L45.25,270.62L51.72,266.4L58.18,263.18L64.65,259.38L71.11,257.99L96.97,248.99L103.43,247.59L109.9,246.54L116.36,244.4L135.76,237.94L142.22,237.19L148.69,236.49L155.15,234.7L161.62,233.9L168.08,232.06L187.47,230.11L193.94,229L213.33,227.9L219.8,227.72L226.26,226.98L232.73,227.02L245.66,226.32L252.12,225.19L277.98,225.69L284.44,224.97L290.91,225.25L297.37,224.46L316.77,223.79L323.23,223.73L329.7,222.99L336.16,223.25L368.48,222.88L374.95,222.84L400.81,222.27L407.27,221.31L426.67,222.09L433.13,221.48L439.6,221.89L446.06,221.45L458.99,221.4L465.45,221.71L471.92,220.6L478.38,222.2L504.24,220.54L510.71,221.53L536.57,220.35L543.03,220.5L555.96,220.6L562.42,220.67L568.89,219.46L575.35,220.68L581.82,219.66L588.28,220.1L620.61,219.78L627.07,219.45L640,219.69" style="vector-effect: none; fill: none; stroke: rgb(44, 160, 44); stroke-opacity: 1; stroke-width: 2px; opacity: 1;"/></g><g class="points"/><g class="text"/></g></g></g></g><g class="zerolinelayer-above"/><path class="xlines-above crisp" d="M59,405.5H701M59,49.5H701" style="fill: none; stroke-width: 1px; stroke: rgb(0, 0, 0); stroke-opacity: 1;"/><path class="ylines-above crisp" d="M59.5,50V405M700.5,50V405" style="fill: none; stroke-width: 1px; stroke: rgb(0, 0, 0); stroke-opacity: 1;"/><g class="overlines-above"/><g class="xaxislayer-above"><path class="xtick ticks crisp" d="M0,406v4" transform="translate(182.82999999999998,0)" style="stroke: rgb(0, 0, 0); stroke-opacity: 1; stroke-width: 1px;"/><path class="xtick ticks crisp" d="M0,406v4" transform="translate(312.12,0)" style="stroke: rgb(0, 0, 0); stroke-opacity: 1; stroke-width: 1px;"/><path class="xtick ticks crisp" d="M0,406v4" transform="translate(441.41,0)" style="stroke: rgb(0, 0, 0); stroke-opacity: 1; stroke-width: 1px;"/><path class="xtick ticks crisp" d="M0,406v4" transform="translate(570.71,0)" style="stroke: rgb(0, 0, 0); stroke-opacity: 1; stroke-width: 1px;"/><path class="xtick ticks crisp" d="M0,406v4" transform="translate(700,0)" style="stroke: rgb(0, 0, 0); stroke-opacity: 1; stroke-width: 1px;"/><g class="xtick"><text text-anchor="middle" x="0" y="424.4" transform="translate(182.82999999999998,0)" style="font-family: 'Computer Modern', 'CMU Serif', 'Times New Roman', serif; font-size: 12px; fill: rgb(0, 0, 0); fill-opacity: 1; white-space: pre;">20</text></g><g class="xtick"><text text-anchor="middle" x="0" y="424.4" style="font-family: 'Computer Modern', 'CMU Serif', 'Times New Roman', serif; font-size: 12px; fill: rgb(0, 0, 0); fill-opacity: 1; white-space: pre;" transform="translate(312.12,0)">40</text></g><g class="xtick"><text text-anchor="middle" x="0" y="424.4" style="font-family: 'Computer Modern', 'CMU Serif', 'Times New Roman', serif; font-size: 12px; fill: rgb(0, 0, 0); fill-opacity: 1; white-space: pre;" transform="translate(441.41,0)">60</text></g><g class="xtick"><text text-anchor="middle" x="0" y="424.4" style="font-family: 'Computer Modern', 'CMU Serif', 'Times New Roman', serif; font-size: 12px; fill: rgb(0, 0, 0); fill-opacity: 1; white-space: pre;" transform="translate(570.71,0)">80</text></g><g class="xtick"><text text-anchor="middle" x="0" y="424.4" style="font-family: 'Computer Modern', 'CMU Serif', 'Times New Roman', serif; font-size: 12px; fill: rgb(0, 0, 0); fill-opacity: 1; white-space: pre;" transform="translate(700,0)">100</text></g></g><g class="yaxislayer-above"><path class="ytick ticks crisp" d="M59,0h-4" transform="translate(0,393.96)" style="stroke: rgb(0, 0, 0); stroke-opacity: 1; stroke-width: 1px;"/><path class="ytick ticks crisp" d="M59,0h-4" transform="translate(0,338.3)" style="stroke: rgb(0, 0, 0); stroke-opacity: 1; stroke-width: 1px;"/><path class="ytick ticks crisp" d="M59,0h-4" transform="translate(0,282.64)" style="stroke: rgb(0, 0, 0); stroke-opacity: 1; stroke-width: 1px;"/><path class="ytick ticks crisp" d="M59,0h-4" transform="translate(0,226.98)" style="stroke: rgb(0, 0, 0); stroke-opacity: 1; stroke-width: 1px;"/><path class="ytick ticks crisp" d="M59,0h-4" transform="translate(0,171.32)" style="stroke: rgb(0, 0, 0); stroke-opacity: 1; stroke-width: 1px;"/><path class="ytick ticks crisp" d="M59,0h-4" transform="translate(0,115.66)" style="stroke: rgb(0, 0, 0); stroke-opacity: 1; stroke-width: 1px;"/><path class="ytick ticks crisp" d="M59,0h-4" transform="translate(0,60)" style="stroke: rgb(0, 0, 0); stroke-opacity: 1; stroke-width: 1px;"/><g class="ytick"><text text-anchor="end" x="52.6" y="4.199999999999999" transform="translate(0,393.96)" style="font-family: 'Computer Modern', 'CMU Serif', 'Times New Roman', serif; font-size: 12px; fill: rgb(0, 0, 0); fill-opacity: 1; white-space: pre;">0.1</text></g><g class="ytick"><text text-anchor="end" x="52.6" y="4.199999999999999" style="font-family: 'Computer Modern', 'CMU Serif', 'Times New Roman', serif; font-size: 12px; fill: rgb(0, 0, 0); fill-opacity: 1; white-space: pre;" transform="translate(0,338.3)">0.2</text></g><g class="ytick"><text text-anchor="end" x="52.6" y="4.199999999999999" style="font-family: 'Computer Modern', 'CMU Serif', 'Times New Roman', serif; font-size: 12px; fill: rgb(0, 0, 0); fill-opacity: 1; white-space: pre;" transform="translate(0,282.64)">0.3</text></g><g class="ytick"><text text-anchor="end" x="52.6" y="4.199999999999999" style="font-family: 'Computer Modern', 'CMU Serif', 'Times New Roman', serif; font-size: 12px; fill: rgb(0, 0, 0); fill-opacity: 1; white-space: pre;" transform="translate(0,226.98)">0.4</text></g><g class="ytick"><text text-anchor="end" x="52.6" y="4.199999999999999" style="font-family: 'Computer Modern', 'CMU Serif', 'Times New Roman', serif; font-size: 12px; fill: rgb(0, 0, 0); fill-opacity: 1; white-space: pre;" transform="translate(0,171.32)">0.5</text></g><g class="ytick"><text text-anchor="end" x="52.6" y="4.199999999999999" style="font-family: 'Computer Modern', 'CMU Serif', 'Times New Roman', serif; font-size: 12px; fill: rgb(0, 0, 0); fill-opacity: 1; white-space: pre;" transform="translate(0,115.66)">0.6</text></g><g class="ytick"><text text-anchor="end" x="52.6" y="4.199999999999999" style="font-family: 'Computer Modern', 'CMU Serif', 'Times New Roman', serif; font-size: 12px; fill: rgb(0, 0, 0); fill-opacity: 1; white-space: pre;" transform="translate(0,60)">0.7</text></g></g><g class="overaxes-above"/></g></g><g class="polarlayer"/><g class="smithlayer"/><g class="ternarylayer"/><g class="geolayer"/><g class="funnelarealayer"/><g class="pielayer"/><g class="iciclelayer"/><g class="treemaplayer"/><g class="sunburstlayer"/><g class="glimages"/><defs id="topdefs-da5118"><g class="clips"/><clipPath id="legendda5118"><rect width="87" height="67" x="1" y="1"/></clipPath></defs><g class="layer-above"><g class="imagelayer"/><g class="shapelayer"/></g><g class="infolayer"><g class="legend" pointer-events="all" transform="translate(598.2,318.25)"><rect class="bg" shape-rendering="crispEdges" style="stroke: rgb(0, 0, 0); stroke-opacity: 1; fill: rgb(255, 255, 255); fill-opacity: 0.9; stroke-width: 1px;" width="88" height="68" x="0.5" y="0.5"/><g class="scrollbox" transform="" clip-path="url(#legendda5118)"><g class="groups"><g class="traces" transform="translate(1,15.5)" style="opacity: 1;"><text class="legendtext" text-anchor="start" x="40" y="4.680000000000001" style="font-family: 'Computer Modern', 'CMU Serif', 'Times New Roman', serif; font-size: 12px; fill: rgb(0, 0, 0); fill-opacity: 1; white-space: pre;">Centroid</text><g class="layers" style="opacity: 1;"><g class="legendfill"/><g class="legendlines"><path class="js-line" d="M5,0h30" style="fill: none; stroke: rgb(31, 119, 180); stroke-opacity: 1; stroke-width: 2px;"/></g><g class="legendsymbols"><g class="legendpoints"/></g></g><rect class="legendtoggle" x="0" y="-9.5" width="82" height="19" style="fill: rgb(0, 0, 0); fill-opacity: 0;"/></g><g class="traces" transform="translate(1,34.5)" style="opacity: 1;"><text class="legendtext" text-anchor="start" x="40" y="4.680000000000001" style="font-family: 'Computer Modern', 'CMU Serif', 'Times New Roman', serif; font-size: 12px; fill: rgb(0, 0, 0); fill-opacity: 1; white-space: pre;">Random</text><g class="layers" style="opacity: 1;"><g class="legendfill"/><g class="legendlines"><path class="js-line" d="M5,0h30" style="fill: none; stroke: rgb(214, 39, 40); stroke-opacity: 1; stroke-width: 2px;"/></g><g class="legendsymbols"><g class="legendpoints"/></g></g><rect class="legendtoggle" x="0" y="-9.5" width="82" height="19" style="fill: rgb(0, 0, 0); fill-opacity: 0;"/></g><g class="traces" transform="translate(1,53.5)" style="opacity: 1;"><text class="legendtext" text-anchor="start" x="40" y="4.680000000000001" style="font-family: 'Computer Modern', 'CMU Serif', 'Times New Roman', serif; font-size: 12px; fill: rgb(0, 0, 0); fill-opacity: 1; white-space: pre;">Font</text><g class="layers" style="opacity: 1;"><g class="legendfill"/><g class="legendlines"><path class="js-line" d="M5,0h30" style="fill: none; stroke: rgb(44, 160, 44); stroke-opacity: 1; stroke-width: 2px;"/></g><g class="legendsymbols"><g class="legendpoints"/></g></g><rect class="legendtoggle" x="0" y="-9.5" width="82" height="19" style="fill: rgb(0, 0, 0); fill-opacity: 0;"/></g></g></g><rect class="scrollbar" rx="20" ry="3" width="0" height="0" style="fill: rgb(128, 139, 164); fill-opacity: 1;" x="0" y="0"/></g><g class="g-gtitle"><text class="gtitle" x="360" y="25" text-anchor="middle" dy="0em" style="opacity: 1; font-family: 'Computer Modern', 'CMU Serif', 'Times New Roman', serif; font-size: 17px; fill: rgb(0, 0, 0); fill-opacity: 1; white-space: pre;">Prototype selection — EMNIST balanced</text></g><g class="g-xtitle"><text class="xtitle" x="380" y="457" text-anchor="middle" style="opacity: 1; font-family: 'Computer Modern', 'CMU Serif', 'Times New Roman', serif; font-size: 14px; fill: rgb(0, 0, 0); fill-opacity: 1; white-space: pre;">Epoch</text></g><g class="g-ytitle"><text class="ytitle" transform="rotate(-90,22,227.5)" x="22" y="227.5" text-anchor="middle" style="opacity: 1; font-family: 'Computer Modern', 'CMU Serif', 'Times New Roman', serif; font-size: 14px; fill: rgb(0, 0, 0); fill-opacity: 1; white-space: pre;">Validation accuracy</text></g></g></svg>